# File created by Blade
# Date/Time:  Tue Jan 27 18:05:41 2015
# Frame Rate: 120.000 fps
#------------------------------------------------------
:FULLY-SPECIFIED
:DEGREES
2776
root -1.447268 31.900930 -6.436136 8.067729 19.715710 4.272885
Spine -6.238984 -9.351385 -5.038586
Head -12.383565 -50.666645 10.877020
LeftShoulder -11.103575 15.167615 7.717965
LeftArm 25.543732 44.315277 -69.578892
LeftForeArm -3.597520 -0.000000 15.926436
LeftHand -11.159103 -0.000000 -6.092176
LeftHandThumb1 -26.253704 0.000000 33.147579
RightShoulder -9.361774 17.324264 -40.395541
RightArm 18.127557 49.360728 29.193419
RightForeArm 18.504916 -0.000000 96.398119
RightHand -5.896526 -0.000000 11.932102
RightHandThumb1 -24.326973 -0.000000 -32.862282
LeftUpLeg -4.369679 -8.052397 -0.364205
LeftLeg 0.434004 -0.000000 -0.000000
LeftFoot -13.972733 12.448287 -23.784630
LeftToeBase 8.667372 -0.000000 -0.000000
RightUpLeg 1.765026 -11.514658 -3.066555
RightLeg -3.468944 -0.000000 0.000000
RightFoot -16.975625 -18.776610 11.513170
RightToeBase 5.340392 -0.000000 -0.000000
2777
root -1.444122 31.901416 -6.433953 8.061139 19.482548 4.233252
Spine -6.228911 -9.298304 -5.045580
Head -12.628032 -50.809826 11.154131
LeftShoulder -11.117920 15.188153 7.727565
LeftArm 25.514468 44.234687 -69.591084
LeftForeArm -3.500090 -0.000000 16.046413
LeftHand -11.194894 -0.000000 -6.143742
LeftHandThumb1 -26.253704 0.000000 33.147579
RightShoulder -9.382586 17.327018 -40.387872
RightArm 18.232932 49.419508 29.477630
RightForeArm 18.360019 0.000000 96.286138
RightHand -5.997215 0.000000 11.972719
RightHandThumb1 -24.326973 -0.000000 -32.862282
LeftUpLeg -4.348673 -7.952626 -0.359319
LeftLeg 0.449938 -0.000000 -0.000000
LeftFoot -14.026730 12.532538 -23.725986
LeftToeBase 8.540629 -0.000000 -0.000000
RightUpLeg 1.718237 -11.386027 -3.062021
RightLeg -3.453781 -0.000000 0.000000
RightFoot -16.936238 -18.664873 11.500510
RightToeBase 5.312635 -0.000000 -0.000000
2778
root -1.441084 31.902004 -6.431101 8.060916 19.252942 4.195171
Spine -6.218448 -9.235175 -5.056300
Head -12.915913 -50.952189 11.474024
LeftShoulder -11.160400 15.198498 7.729194
LeftArm 25.540635 44.185610 -69.549085
LeftForeArm -3.388490 -0.000000 16.146818
LeftHand -11.075724 -0.000000 -6.037114
LeftHandThumb1 -26.253704 0.000000 33.147579
RightShoulder -9.406109 17.353531 -40.397659
RightArm 18.252827 49.482839 29.703970
RightForeArm 18.233447 0.000000 96.180812
RightHand -6.028818 -0.000000 12.105872
RightHandThumb1 -24.326973 -0.000000 -32.862282
LeftUpLeg -4.333861 -7.805269 -0.359928
LeftLeg 0.462929 -0.000000 -0.000000
LeftFoot -14.108133 12.605324 -23.744783
LeftToeBase 8.569166 -0.000000 -0.000000
RightUpLeg 1.668862 -11.266721 -3.056197
RightLeg -3.446419 -0.000000 0.000000
RightFoot -16.883355 -18.553248 11.459567
RightToeBase 5.309707 -0.000000 -0.000000
2779
root -1.436833 31.902905 -6.428353 8.077299 19.006144 4.163249
Spine -6.240859 -9.152559 -5.065949
Head -13.147686 -51.064577 11.737523
LeftShoulder -11.186067 15.233252 7.728810
LeftArm 25.597972 44.148123 -69.484891
LeftForeArm -3.381276 0.000000 16.221929
LeftHand -11.009805 0.000000 -5.931112
LeftHandThumb1 -26.253704 0.000000 33.147579
RightShoulder -9.424512 17.343394 -40.393311
RightArm 18.341985 49.552579 29.943268
RightForeArm 18.127377 -0.000000 96.065319
RightHand -6.174737 -0.000000 12.172514
RightHandThumb1 -24.326973 -0.000000 -32.862282
LeftUpLeg -4.324535 -7.663304 -0.363522
LeftLeg 0.455435 -0.000000 -0.000000
LeftFoot -14.178511 12.689224 -23.751529
LeftToeBase 8.589474 -0.000000 -0.000000
RightUpLeg 1.604076 -11.137537 -3.058153
RightLeg -3.441133 -0.000000 0.000000
RightFoot -16.831107 -18.427052 11.443786
RightToeBase 5.294024 -0.000000 -0.000000
2780
root -1.432406 31.903936 -6.427242 8.089753 18.793499 4.134565
Spine -6.250831 -9.106879 -5.079446
Head -13.354778 -51.107769 11.999885
LeftShoulder -11.133557 15.187478 7.765907
LeftArm 25.396724 43.767403 -69.769421
LeftForeArm -2.980165 -0.000000 16.192550
LeftHand -10.995390 -0.000000 -6.297985
LeftHandThumb1 -26.253704 0.000000 33.147579
RightShoulder -9.413787 17.360404 -40.362594
RightArm 18.340226 49.628191 30.098405
RightForeArm 18.160325 -0.000000 95.952479
RightHand -5.964010 -0.000000 12.024093
RightHandThumb1 -24.326973 -0.000000 -32.862282
LeftUpLeg -4.315832 -7.575488 -0.367553
LeftLeg 0.450045 -0.000000 -0.000000
LeftFoot -14.252932 12.794967 -23.774729
LeftToeBase 8.609742 -0.000000 -0.000000
RightUpLeg 1.545421 -11.025308 -3.062085
RightLeg -3.429768 -0.000000 0.000000
RightFoot -16.790147 -18.313976 11.424352
RightToeBase 5.277334 -0.000000 -0.000000
2781
root -1.432408 31.904878 -6.429423 8.114842 18.594483 4.101929
Spine -6.259582 -9.096068 -5.087303
Head -13.574578 -51.083501 12.260643
LeftShoulder -11.151883 15.187722 7.769431
LeftArm 25.402321 43.730550 -69.704977
LeftForeArm -2.963779 -0.000000 16.325898
LeftHand -10.886162 -0.000000 -6.201029
LeftHandThumb1 -26.253704 0.000000 33.147579
RightShoulder -9.409665 17.342653 -40.357846
RightArm 18.414870 49.745529 30.336461
RightForeArm 18.027121 -0.000000 95.819126
RightHand -5.935651 -0.000000 12.055594
RightHandThumb1 -24.326973 -0.000000 -32.862282
LeftUpLeg -4.344430 -7.457808 -0.355941
LeftLeg 0.476505 -0.000000 -0.000000
LeftFoot -14.327981 12.836270 -23.838965
LeftToeBase 8.589828 -0.000000 -0.000000
RightUpLeg 1.462434 -10.886583 -3.047561
RightLeg -3.414500 -0.000000 0.000000
RightFoot -16.744957 -18.263836 11.392006
RightToeBase 5.253106 -0.000000 -0.000000
2782
root -1.428464 31.905602 -6.429007 8.134470 18.403602 4.081188
Spine -6.267056 -9.095775 -5.094982
Head -13.780900 -51.042835 12.489620
LeftShoulder -11.176666 15.168170 7.757346
LeftArm 25.360295 43.635894 -69.701612
LeftForeArm -2.906714 -0.000000 16.491156
LeftHand -11.121911 -0.000000 -6.170785
LeftHandThumb1 -26.253704 0.000000 33.147579
RightShoulder -9.416690 17.294000 -40.352142
RightArm 18.509806 49.842998 30.544688
RightForeArm 17.788174 -0.000000 95.674519
RightHand -5.938326 0.000000 12.117190
RightHandThumb1 -24.326973 -0.000000 -32.862282
LeftUpLeg -4.343129 -7.398775 -0.362204
LeftLeg 0.462119 -0.000000 -0.000000
LeftFoot -14.389464 12.962283 -23.842267
LeftToeBase 8.595817 -0.000000 -0.000000
RightUpLeg 1.402638 -10.767088 -3.054052
RightLeg -3.405678 -0.000000 0.000000
RightFoot -16.710935 -18.189427 11.385226
RightToeBase 5.242310 -0.000000 -0.000000
2783
root -1.423343 31.906159 -6.426356 8.156370 18.213213 4.061355
Spine -6.288525 -9.105705 -5.092750
Head -13.938783 -50.995577 12.653811
LeftShoulder -11.205606 15.165456 7.733846
LeftArm 25.311444 43.528065 -69.708592
LeftForeArm -2.796305 -0.000000 16.606284
LeftHand -11.171780 -0.000000 -6.179931
LeftHandThumb1 -26.253704 0.000000 33.147579
RightShoulder -9.414679 17.276417 -40.354858
RightArm 18.559343 49.864614 30.698151
RightForeArm 17.968238 0.000000 95.562040
RightHand -6.037919 0.000000 11.734186
RightHandThumb1 -24.326973 -0.000000 -32.862282
LeftUpLeg -4.338313 -7.329620 -0.370356
LeftLeg 0.451315 -0.000000 -0.000000
LeftFoot -14.447863 13.069589 -23.868790
LeftToeBase 8.589380 -0.000000 -0.000000
RightUpLeg 1.354422 -10.655564 -3.062467
RightLeg -3.416146 -0.000000 0.000000
RightFoot -16.681237 -18.100071 11.394529
RightToeBase 5.280130 -0.000000 -0.000000
2784
root -1.419465 31.906441 -6.424035 8.181091 18.037625 4.031953
Spine -6.312658 -9.117693 -5.085877
Head -14.099253 -50.966711 12.844096
LeftShoulder -11.218679 15.173037 7.725033
LeftArm 25.280353 43.416270 -69.710506
LeftForeArm -2.666359 -0.000000 16.716718
LeftHand -11.099760 -0.000000 -6.059647
LeftHandThumb1 -26.253704 0.000000 33.147579
RightShoulder -9.385950 17.232832 -40.344916
RightArm 18.577912 50.013715 30.848313
RightForeArm 17.862508 0.000000 95.425889
RightHand -6.059038 -0.000000 11.798566
RightHandThumb1 -24.326973 -0.000000 -32.862282
LeftUpLeg -4.351194 -7.220071 -0.365071
LeftLeg 0.465884 -0.000000 -0.000000
LeftFoot -14.509708 13.102183 -23.871356
LeftToeBase 8.600360 -0.000000 -0.000000
RightUpLeg 1.296308 -10.571717 -3.055058
RightLeg -3.418970 -0.000000 0.000000
RightFoot -16.640584 -18.021605 11.363721
RightToeBase 5.227074 -0.000000 -0.000000
2785
root -1.412918 31.906684 -6.421833 8.204389 17.858366 4.021033
Spine -6.330253 -9.123090 -5.090378
Head -14.254130 -50.945960 13.010327
LeftShoulder -11.241852 15.229415 7.688594
LeftArm 25.391006 43.341920 -69.593319
LeftForeArm -2.612759 0.000000 16.758112
LeftHand -10.962482 -0.000000 -6.002761
LeftHandThumb1 -26.253704 0.000000 33.147579
RightShoulder -9.385759 17.137166 -40.321973
RightArm 18.709347 50.197013 31.084193
RightForeArm 17.799024 -0.000000 95.285885
RightHand -6.059675 0.000000 11.915927
RightHandThumb1 -24.326973 -0.000000 -32.862282
LeftUpLeg -4.292120 -7.342769 -0.360840
LeftLeg 0.338169 -0.000000 -0.000000
LeftFoot -14.594532 13.323060 -24.031947
LeftToeBase 8.639004 -0.000000 -0.000000
RightUpLeg 1.250122 -10.490169 -3.071556
RightLeg -3.430789 -0.000000 0.000000
RightFoot -16.594471 -17.928341 11.361368
RightToeBase 5.208954 -0.000000 -0.000000
2786
root -1.410739 31.907551 -6.420510 8.241826 17.722952 4.012956
Spine -6.351019 -9.172281 -5.106135
Head -14.380720 -50.911909 13.163019
LeftShoulder -11.249670 15.230669 7.676933
LeftArm 25.444018 43.347637 -69.473880
LeftForeArm -2.695865 0.000000 16.858496
LeftHand -11.108492 -0.000000 -6.090642
LeftHandThumb1 -26.253704 0.000000 33.147579
RightShoulder -9.385824 17.087713 -40.304810
RightArm 18.757039 50.357686 31.278906
RightForeArm 17.781448 -0.000000 95.153108
RightHand -5.844238 -0.000000 11.945767
RightHandThumb1 -24.326973 -0.000000 -32.862282
LeftUpLeg -4.363310 -7.113406 -0.391152
LeftLeg 0.436457 -0.000000 -0.000000
LeftFoot -14.602706 13.295676 -23.911763
LeftToeBase 8.561606 -0.000000 -0.000000
RightUpLeg 1.195937 -10.445349 -3.073794
RightLeg -3.445180 -0.000000 0.000000
RightFoot -16.552258 -17.868578 11.307170
RightToeBase 5.216736 -0.000000 -0.000000
2787
root -1.407506 31.907942 -6.418973 8.266092 17.591517 3.996532
Spine -6.376607 -9.231297 -5.105387
Head -14.435301 -50.903333 13.238323
LeftShoulder -11.243552 15.256684 7.661467
LeftArm 25.513599 43.312458 -69.375205
LeftForeArm -2.776979 0.000000 16.892337
LeftHand -11.080668 0.000000 -5.929631
LeftHandThumb1 -26.253704 0.000000 33.147579
RightShoulder -9.357962 17.075043 -40.302183
RightArm 18.785572 50.499059 31.470580
RightForeArm 17.778673 -0.000000 95.019653
RightHand -5.867980 0.000000 12.019479
RightHandThumb1 -24.326973 -0.000000 -32.862282
LeftUpLeg -4.379420 -7.011691 -0.397428
LeftLeg 0.452002 -0.000000 -0.000000
LeftFoot -14.650561 13.311031 -23.923359
LeftToeBase 8.593887 -0.000000 -0.000000
RightUpLeg 1.154783 -10.407910 -3.072838
RightLeg -3.460184 -0.000000 0.000000
RightFoot -16.506034 -17.785662 11.291390
RightToeBase 5.198939 -0.000000 -0.000000
2788
root -1.400828 31.907701 -6.416296 8.273684 17.457395 3.985918
Spine -6.382024 -9.270782 -5.110026
Head -14.520614 -50.934817 13.344213
LeftShoulder -11.224246 15.250638 7.657048
LeftArm 25.563713 43.258704 -69.320880
LeftForeArm -2.776235 -0.000000 16.887837
LeftHand -11.149042 -0.000000 -6.129207
LeftHandThumb1 -26.253704 0.000000 33.147579
RightShoulder -9.345397 17.043678 -40.285151
RightArm 18.829617 50.671706 31.657723
RightForeArm 17.753457 0.000000 94.860783
RightHand -5.917822 -0.000000 12.144221
RightHandThumb1 -24.326973 -0.000000 -32.862282
LeftUpLeg -4.314770 -7.140344 -0.388722
LeftLeg 0.341508 -0.000000 -0.000000
LeftFoot -14.717997 13.490264 -24.049047
LeftToeBase 8.613006 -0.000000 -0.000000
RightUpLeg 1.134358 -10.356968 -3.086345
RightLeg -3.473341 -0.000000 0.000000
RightFoot -16.472212 -17.726193 11.247216
RightToeBase 5.186378 -0.000000 -0.000000
